<svg xmlns="http://www.w3.org/2000/svg" width="590" height="445" viewBox="0 0 590 445" role="img" aria-label="Notice document with a checklist">
<defs><linearGradient id="bg" x2="1" y2="1"><stop stop-color="#dff4f3"/><stop offset="1" stop-color="#e9f1fc"/></linearGradient><filter id="shadow"><feDropShadow dx="0" dy="15" stdDeviation="19" flood-color="#214362" flood-opacity=".15"/></filter></defs>
<rect x="10" y="15" width="565" height="418" rx="58" fill="url(#bg)"/>
<circle cx="476" cy="90" r="56" fill="#bbebe6"/><circle cx="82" cy="346" r="41" fill="#d2def7"/>
<g transform="rotate(-8 268 213)" filter="url(#shadow)"><rect x="118" y="67" width="285" height="316" rx="22" fill="white"/><rect x="142" y="92" width="102" height="24" rx="12" fill="#d7f3ed"/><rect x="142" y="143" width="211" height="11" rx="5.5" fill="#c7d4e0"/><rect x="142" y="170" width="182" height="11" rx="5.5" fill="#d9e3eb"/><rect x="142" y="197" width="211" height="11" rx="5.5" fill="#d9e3eb"/><rect x="142" y="248" width="139" height="12" rx="6" fill="#c8d9e7"/><rect x="142" y="276" width="188" height="12" rx="6" fill="#d9e3eb"/><rect x="142" y="305" width="170" height="12" rx="6" fill="#d9e3eb"/><circle cx="337" cy="253" r="21" fill="#e2f4ef"/><path d="m327 252 7 7 14-15" fill="none" stroke="#178e81" stroke-width="5" stroke-linecap="round" stroke-linejoin="round"/></g>
<g filter="url(#shadow)"><rect x="325" y="170" width="208" height="143" rx="23" fill="#123957"/><rect x="350" y="197" width="42" height="42" rx="11" fill="#1d8e93"/><path d="m361 219 8 8 13-17" fill="none" stroke="#fff" stroke-width="5" stroke-linecap="round" stroke-linejoin="round"/><rect x="407" y="200" width="93" height="9" rx="4.5" fill="#b3d7db"/><rect x="407" y="222" width="72" height="8" rx="4" fill="#567b92"/><rect x="350" y="261" width="151" height="11" rx="5.5" fill="#456b84"/><rect x="350" y="282" width="111" height="9" rx="4.5" fill="#456b84"/></g>
<circle cx="466" cy="365" r="29" fill="#f6c778"/><path d="m467 348 1 18 12 7" stroke="#644b29" stroke-width="4" fill="none" stroke-linecap="round"/>
</svg>
